#N canvas 269 104 1055 783 10;
#X obj 275 19 notein;
#X floatatom 314 -9 5 0 0 0 - - -, f 5;
#X floatatom 294 -29 5 0 0 0 - - -, f 5;
#X floatatom 275 -9 5 0 0 0 - - -, f 5;
#N canvas 92 358 467 543 midiParse 0;
#X obj 104 -133 inlet;
#X obj 157 -132 inlet;
#X floatatom 262 114 5 0 0 0 - - -, f 5;
#X obj 104 -59 route 0 1 2 3 4;
#X obj 104 -89 pack i i;
#X obj 185 67 route 0;
#X floatatom 182 114 5 0 0 0 - - -, f 5;
#X obj 144 23 route 0;
#X floatatom 222 114 5 0 0 0 - - -, f 5;
#X obj 165 45 route 0;
#X floatatom 102 114 5 0 0 0 - - -, f 5;
#X obj 104 -23 route 0;
#X floatatom 142 114 5 0 0 0 - - -, f 5;
#X obj 125 0 route 0;
#X floatatom 105 -154 5 0 0 0 - - -, f 5;
#X floatatom 157 -153 5 0 0 0 - - -, f 5;
#X obj 262 153 outlet;
#X obj 222 172 outlet;
#X obj 182 151 outlet;
#X obj 102 150 outlet;
#X obj 142 171 outlet;
#X connect 0 0 4 0;
#X connect 0 0 14 0;
#X connect 1 0 4 1;
#X connect 1 0 15 0;
#X connect 2 0 16 0;
#X connect 3 0 11 0;
#X connect 3 1 13 0;
#X connect 3 2 7 0;
#X connect 3 3 9 0;
#X connect 3 4 5 0;
#X connect 4 0 3 0;
#X connect 5 1 2 0;
#X connect 6 0 18 0;
#X connect 7 1 6 0;
#X connect 8 0 17 0;
#X connect 9 1 8 0;
#X connect 10 0 19 0;
#X connect 11 1 10 0;
#X connect 12 0 20 0;
#X connect 13 1 12 0;
#X coords 1 -1 2 1 210 30 1 100 100;
#X restore 275 67 pd midiParse;
#N canvas 59 178 450 300 detectChangeNote 0;
#X obj 10 -86 bang;
#X msg 10 -47 1;
#X floatatom 60 14 5 0 0 0 - - -, f 5;
#X obj 111 -85 bang;
#X msg 111 -46 3;
#X obj 107 112 bng 15 250 50 0 empty empty empty 17 7 0 10 -262144
-1 -1;
#X obj 107 47 !=;
#X floatatom 162 14 5 0 0 0 - - -, f 5;
#X obj 107 78 sel 1;
#X obj 60 -85 bang;
#X obj 162 -83 bang;
#X obj 213 -83 bang;
#X msg 60 -46 2;
#X msg 162 -46 4;
#X msg 213 -45 5;
#X obj 107 148 outlet;
#X obj 10 -114 inlet;
#X obj 60 -113 inlet;
#X obj 111 -113 inlet;
#X obj 162 -111 inlet;
#X obj 213 -111 inlet;
#X connect 0 0 1 0;
#X connect 1 0 2 0;
#X connect 1 0 7 0;
#X connect 2 0 6 0;
#X connect 3 0 4 0;
#X connect 4 0 2 0;
#X connect 4 0 7 0;
#X connect 5 0 15 0;
#X connect 6 0 8 0;
#X connect 7 0 6 1;
#X connect 8 0 5 0;
#X connect 9 0 12 0;
#X connect 10 0 13 0;
#X connect 11 0 14 0;
#X connect 12 0 2 0;
#X connect 12 0 7 0;
#X connect 13 0 2 0;
#X connect 13 0 7 0;
#X connect 14 0 2 0;
#X connect 14 0 7 0;
#X connect 16 0 0 0;
#X connect 17 0 9 0;
#X connect 18 0 3 0;
#X connect 19 0 10 0;
#X connect 20 0 11 0;
#X coords 0 -1 1 1 30 30 1 100 100;
#X restore 275 123 pd detectChangeNote;
#N canvas 965 196 825 644 compteur 0;
#X obj 38 -2 bng 15 250 50 0 empty empty empty 17 7 0 10 -262144 -1
-1;
#X floatatom 101 165 5 0 255 2 Compteur - -, f 5;
#X obj 101 135 nbx 5 14 1 24 0 0 empty empty Nombre_de_Samples 0 -8
0 10 -262144 -1 -86277 16 256;
#X obj 40 102 sel 1;
#X obj 121 -2 bng 15 250 50 0 empty empty empty 17 7 0 10 -262144 -1
-1;
#X msg 121 29 1;
#X obj 121 65 +;
#X obj 40 64 >=;
#X obj 38 30 int 0;
#X obj 101 218 outlet;
#X obj 121 -65 inlet;
#X obj 38 -64 inlet;
#X connect 0 0 8 0;
#X connect 1 0 6 1;
#X connect 1 0 7 0;
#X connect 1 0 9 0;
#X connect 2 0 7 1;
#X connect 3 0 0 0;
#X connect 4 0 5 0;
#X connect 5 0 6 0;
#X connect 6 0 1 0;
#X connect 7 0 3 0;
#X connect 8 0 1 0;
#X connect 10 0 4 0;
#X connect 11 0 0 0;
#X coords 0 -1 1 1 85 80 1 100 100;
#X restore 275 184 pd compteur;
#X floatatom 275 343 5 0 0 0 - - -, f 5;
#X connect 0 0 3 0;
#X connect 0 0 4 0;
#X connect 0 1 2 0;
#X connect 0 1 4 1;
#X connect 0 2 1 0;
#X connect 4 0 5 0;
#X connect 4 0 6 1;
#X connect 4 1 5 1;
#X connect 4 1 6 1;
#X connect 4 2 5 2;
#X connect 4 2 6 1;
#X connect 4 3 5 3;
#X connect 4 3 6 1;
#X connect 4 4 5 4;
#X connect 4 4 6 1;
#X connect 5 0 6 0;
#X connect 6 0 7 0;
#X coords 0 0 100 100 85 60 0;
